<svg class="thumb" width="1000" height="1000" viewBox="0,0,600,600" xmlns="http://www.w3.org/2000/svg" xmlns:inkscape="http://www.inkscape.org/namespaces/inkscape" xmlns:sodipodi="http://sodipodi.sourceforge.net/DTD/sodipodi-0.dtd" xmlns:xlink="http://www.w3.org/1999/xlink" xmlns:ns1="http://www.inkscape.org/namespaces/inkscape" xmlns:sketch="http://www.bohemiancoding.com/sketch/ns">
  <defs></defs>
  <g transform="matrix(1.2993,0,0,1.2993,-44.3673,14.2766)">
    <g transform="matrix(2.3511,0,0,2.3511,45.1703,0.3458)">
      <svg width="187.0337218024264" height="186.77" viewBox="-5.131860901213205,-5,187.0337218024264,186.77" class="thumb">
        <defs>
          <linearGradient x1="0" y1="0.5" x2="1" y2="0.5" id="linearGradientSkasyuovb4">
            <stop offset="0%" stop-color="#81f0a3"></stop>
            <stop offset="100%" stop-color="#81f0a3"></stop>
          </linearGradient>
        </defs>
        <g></g>
        <g>
          <circle cx="88.385" cy="88.385" r="88.385" fill="url('#linearGradientSkasyuovb4')" stroke="none" style=""></circle>
        </g>
      </svg>
    </g>
    <g transform="matrix(2.2442,0,0,2.2442,54.171,8.2931)">
      <svg width="187.0337218024264" height="186.77" viewBox="-5.131860901213205,-5,187.0337218024264,186.77" class="thumb">
        <defs>
          <linearGradient x1="0" y1="0.5" x2="1" y2="0.5" id="linearGradientSkasyuovba">
            <stop offset="0%" stop-color="#363636"></stop>
            <stop offset="100%" stop-color="#363636"></stop>
          </linearGradient>
        </defs>
        <g></g>
        <g>
          <circle cx="88.385" cy="88.385" r="88.385" fill="url('#linearGradientSkasyuovba')" stroke="none" style=""></circle>
        </g>
      </svg>
    </g>
    <g transform="matrix(1.9634,0,0,1.9634,226.9704,56.1535)">
      <svg width="53.22407501042022" height="63.98050614670408" viewBox="29.35765882266726,0.6194938532959213,53.22407501042022,63.98050614670408">
        <defs>
          <linearGradient x1="0" y1="0.5" x2="1" y2="0.5" id="linearGradientSkasyuovbg">
            <stop offset="0%" stop-color="#81f0a3"></stop>
            <stop offset="100%" stop-color="#81f0a3"></stop>
          </linearGradient>
        </defs>
        <g></g>
        <g>
          <path d="M58.9,59.6c-0.3,0-0.6-0.1-0.8-0.3c-18.5-12.9-28.5-34-21.5-45.3c3-4.8,6.6-6.8,11.5-8.3c0.5-0.2,1,0,1.4,0.3     c0.4,0.4,0.5,0.9,0.4,1.4c-0.2,0.9-5.7,21.4,19.9,32c4.7,1.9,6.6,5,7.3,7.1c1,3,0.4,6.4-1.4,9.4c-0.4,0.7-1.3,0.9-2,0.5     c-0.7-0.4-0.9-1.3-0.5-2c1.4-2.3,1.8-4.9,1.1-7c-0.7-2.3-2.7-4.2-5.6-5.4c-22.6-9.3-22.8-26.4-22-32.8c-3.2,1.3-5.6,3-7.7,6.3     c-6.2,9.9,3.7,29.7,20.7,41.5c0.6,0.4,0.8,1.3,0.4,2C59.8,59.4,59.3,59.6,58.9,59.6z" fill="url('#linearGradientSkasyuovbg')" stroke="none" style=""></path>
        </g>
      </svg>
    </g>
    <g transform="matrix(1.8996,0,0,1.8996,203.355,73.6598)">
      <svg width="27.358978059651527" height="53.744101171684335" viewBox="17.391021940348473,8.855898828315668,27.358978059651527,53.744101171684335">
        <defs>
          <linearGradient x1="0" y1="0.5" x2="1" y2="0.5" id="linearGradientSkasyuovbm">
            <stop offset="0%" stop-color="#81f0a3"></stop>
            <stop offset="100%" stop-color="#81f0a3"></stop>
          </linearGradient>
        </defs>
        <g></g>
        <g>
          <path d="M38.3,57.6c-0.4,0-0.7-0.1-1-0.4c-0.8-0.8-19.6-19.7-13.8-32.1c4.1-9,13.2-11.1,13.6-11.2c0.8-0.2,1.5,0.3,1.7,1.1     c0.2,0.8-0.3,1.5-1.1,1.7l0,0c-0.1,0-8.1,1.9-11.7,9.6C21.2,36.9,39.2,55,39.3,55.2c0.6,0.6,0.6,1.5,0,2     C39.1,57.5,38.7,57.6,38.3,57.6z" fill="url('#linearGradientSkasyuovbm')" stroke="none" style=""></path>
        </g>
      </svg>
    </g>
    <g transform="matrix(1.9634,0,0,1.9634,189.3479,99.6409)">
      <svg width="19.849610787625274" height="35.079160302689644" viewBox="9.929549515064373,23.02083969731036,19.849610787625274,35.079160302689644">
        <defs>
          <linearGradient x1="0" y1="0.5" x2="1" y2="0.5" id="linearGradientSkasyuovbs">
            <stop offset="0%" stop-color="#81f0a3"></stop>
            <stop offset="100%" stop-color="#81f0a3"></stop>
          </linearGradient>
        </defs>
        <g></g>
        <g>
          <path d="M19.6,53.1c-0.4,0-0.8-0.1-1-0.4c-2.9-3.1-4.3-8.6-3.4-13.8c0.8-4.8,3.5-8.6,7.5-10.7c0.7-0.4,1.5-0.1,1.9,0.6     c0.4,0.7,0.1,1.6-0.6,1.9c-3.2,1.6-5.3,4.7-6,8.6c-0.7,4.2,0.4,8.9,2.7,11.4c0.5,0.6,0.5,1.5-0.1,2C20.3,53,20,53.1,19.6,53.1z" fill="url('#linearGradientSkasyuovbs')" stroke="none" style=""></path>
        </g>
      </svg>
    </g>
    <g transform="matrix(1.9634,0,0,1.9634,250.8789,57.0254)">
      <svg width="48.06441982744924" height="56.9151015307185" viewBox="41.89357777227643,1.1848984692814986,48.06441982744924,56.9151015307185">
        <defs>
          <linearGradient x1="0" y1="0.5" x2="1" y2="0.5" id="linearGradientSkasyuovby">
            <stop offset="0%" stop-color="#81f0a3"></stop>
            <stop offset="100%" stop-color="#81f0a3"></stop>
          </linearGradient>
        </defs>
        <g></g>
        <g>
          <path d="M80.7,53.1c-0.3,0-0.6-0.1-0.9-0.3c-0.6-0.5-0.7-1.4-0.3-2c2.2-2.9,2.9-5.7,2.1-8.4c-1.7-5.9-10-11.7-24.5-17.2     c-12.7-4.8-10-17.8-9.9-17.9c0.2-0.8,0.9-1.2,1.7-1.1c0.8,0.2,1.2,0.9,1.1,1.7l0,0c-0.1,0.4-2.2,10.8,8.2,14.7     c15.7,5.9,24.2,12.1,26.3,19c1.1,3.6,0.2,7.3-2.5,10.9C81.5,53,81.1,53.1,80.7,53.1z" fill="url('#linearGradientSkasyuovby')" stroke="none" style=""></path>
        </g>
      </svg>
    </g>
    <g transform="matrix(1.9634,0,0,1.9634,251.7507,58.6775)">
      <svg width="41.39927933203595" height="37.112679274127885" viewBox="42.08732072587211,1.987320725872113,41.39927933203595,37.112679274127885">
        <defs>
          <linearGradient x1="0" y1="0.5" x2="1" y2="0.5" id="linearGradientSkasyuovb14">
            <stop offset="0%" stop-color="#81f0a3"></stop>
            <stop offset="100%" stop-color="#81f0a3"></stop>
          </linearGradient>
        </defs>
        <g></g>
        <g>
          <path d="M76.4,34.1c-0.3,0-0.6-0.1-0.9-0.3c-0.6-0.5-0.7-1.4-0.3-2c0.7-0.8,0.4-1.9,0.1-2.7c-1.2-3.2-6.4-7.4-14.8-9     C48.7,17.9,47.1,8.9,47.1,8.6c-0.1-0.8,0.4-1.5,1.2-1.6c0.8-0.1,1.5,0.4,1.6,1.2c0.1,0.3,1.4,7.4,11.2,9.2     c9.5,1.8,15.4,6.7,16.9,10.7c0.8,2,0.6,4-0.5,5.4C77.3,33.9,76.8,34.1,76.4,34.1z" fill="url('#linearGradientSkasyuovb14')" stroke="none" style=""></path>
        </g>
      </svg>
    </g>
    <g transform="matrix(1.9634,0,0,1.9634,239.2563,160.7141)">
      <svg width="14.722232591721493" height="39.612679274127906" viewBox="35.58732072587212,54.0873207258721,14.722232591721493,39.612679274127906">
        <defs>
          <linearGradient x1="0" y1="0.5" x2="1" y2="0.5" id="linearGradientSkasyuovb1a">
            <stop offset="0%" stop-color="#b677d4"></stop>
            <stop offset="100%" stop-color="#b677d4"></stop>
          </linearGradient>
        </defs>
        <g></g>
        <g>
          <path d="M43.9,88.7c-0.8,0-1.4-0.6-1.4-1.4c-0.2-9.9-0.8-18.6-1.9-26.6c-0.1-0.8,0.4-1.5,1.2-1.6c0.8-0.1,1.5,0.4,1.6,1.2     c1,8,1.7,16.8,1.9,26.9C45.4,88,44.7,88.6,43.9,88.7C43.9,88.7,43.9,88.7,43.9,88.7z" fill="url('#linearGradientSkasyuovb1a')" stroke="none" style=""></path>
        </g>
      </svg>
    </g>
    <g transform="matrix(1.9634,0,0,1.9634,210.3296,153.7324)">
      <svg width="18.051483716701107" height="40.35148371670112" viewBox="20.648516283298896,50.64851628329888,18.051483716701107,40.35148371670112">
        <defs>
          <linearGradient x1="0" y1="0.5" x2="1" y2="0.5" id="linearGradientSkasyuovb1g">
            <stop offset="0%" stop-color="#b677d4"></stop>
            <stop offset="100%" stop-color="#b677d4"></stop>
          </linearGradient>
        </defs>
        <g></g>
        <g>
          <path d="M32.2,86c-0.8,0-1.4-0.6-1.4-1.4c-0.1-10.3-2.5-19.1-5.1-27.1c-0.2-0.7,0.2-1.5,0.9-1.8c0.7-0.2,1.5,0.2,1.8,0.9     c2.7,8.2,5.1,17.2,5.3,27.9C33.6,85.3,33,85.9,32.2,86C32.2,86,32.2,86,32.2,86z" fill="url('#linearGradientSkasyuovb1g')" stroke="none" style=""></path>
        </g>
      </svg>
    </g>
    <g transform="matrix(1.9634,0,0,1.9634,270.238,161.7324)">
      <svg width="13.34912571903621" height="40.1109038524102" viewBox="50.96177813337398,54.189096147589794,13.34912571903621,40.1109038524102">
        <defs>
          <linearGradient x1="0" y1="0.5" x2="1" y2="0.5" id="linearGradientSkasyuovb1m">
            <stop offset="0%" stop-color="#b677d4"></stop>
            <stop offset="100%" stop-color="#b677d4"></stop>
          </linearGradient>
        </defs>
        <g></g>
        <g>
          <path d="M57.8,89.3c-0.7,0-1.4-0.6-1.4-1.3c-0.6-9.4-0.6-18.7,0.1-27.5c0.1-0.8,0.7-1.4,1.5-1.3c0.8,0.1,1.4,0.7,1.3,1.5     c-0.6,8.7-0.7,17.9-0.1,27.1C59.3,88.5,58.7,89.2,57.8,89.3C57.9,89.3,57.9,89.3,57.8,89.3z" fill="url('#linearGradientSkasyuovb1m')" stroke="none" style=""></path>
        </g>
      </svg>
    </g>
    <g transform="matrix(1.8603,0,0,1.8603,292.187,155.793)">
      <svg width="17.899682374385122" height="40.988817662354236" viewBox="61.489135287969106,50.61118233764576,17.899682374385122,40.988817662354236">
        <defs>
          <linearGradient x1="0" y1="0.5" x2="1" y2="0.5" id="linearGradientSkasyuovb1s">
            <stop offset="0%" stop-color="#b677d4"></stop>
            <stop offset="100%" stop-color="#b677d4"></stop>
          </linearGradient>
        </defs>
        <g></g>
        <g>
          <path d="M67.9,86.6C67.9,86.6,67.9,86.6,67.9,86.6c-0.9,0-1.5-0.7-1.4-1.5c0.6-10.6,2.1-19.1,5.1-28.5c0.2-0.7,1-1.2,1.8-0.9     c0.7,0.2,1.2,1,0.9,1.8c-2.9,9.1-4.4,17.5-5,27.8C69.3,86,68.7,86.6,67.9,86.6z" fill="url('#linearGradientSkasyuovb1s')" stroke="none" style=""></path>
        </g>
      </svg>
    </g>
    <g transform="matrix(1.9634,0,0,1.9634,187.4831,144.8972)">
      <svg width="81.4787753826796" height="49.50000000000001" viewBox="9.260612308660184,45.29999999999999,81.4787753826796,49.50000000000001">
        <defs>
          <linearGradient x1="0" y1="0.5" x2="1" y2="0.5" id="linearGradientSkasyuovb1y">
            <stop offset="0%" stop-color="#ffffff"></stop>
            <stop offset="100%" stop-color="#ffffff"></stop>
          </linearGradient>
        </defs>
        <g></g>
        <g>
          <path d="M50.1,89.8H50c-13.2,0-22-3.6-25.5-10.4c-0.1-0.1-0.1-0.3-0.1-0.4c-1.7-10.5-4.2-17.2-9.9-26.4c-0.3-0.4-0.3-0.9-0.1-1.4     c0.2-0.4,0.6-0.7,1.1-0.8c0.5-0.1,1-0.1,1.5-0.1c3.9,0,7.9,1.8,10.3,4.7c1.5-1,3.3-1.6,5.2-1.7c3.8-0.2,7.4,1.6,9.7,4.6     c2-2.3,4.8-3.6,7.8-3.6s5.9,1.3,7.8,3.6c2.2-3,5.8-4.8,9.7-4.6c1.9,0.1,3.7,0.7,5.2,1.7c2.4-2.9,6.3-4.7,10.3-4.7     c0.5,0,1,0,1.5,0.1c0.5,0.1,0.9,0.4,1.1,0.8c0.2,0.4,0.2,0.9-0.1,1.4c-5.7,9.2-8.2,15.8-9.9,26.4c0,0.1-0.1,0.2-0.1,0.4     C72.3,86.2,63.8,89.8,50.1,89.8z M27.1,78.2c3.8,7.1,14.5,8.7,22.9,8.7h0.1c12.3,0,19.9-2.9,22.7-8.6c1.6-10,4-16.6,8.9-25.1     c-3.1,0.4-6.1,2.1-7.6,4.6c-0.2,0.4-0.6,0.6-1,0.7c-0.4,0.1-0.9-0.1-1.2-0.4c-1.2-1.2-2.8-1.9-4.6-2c-3.4-0.2-6.7,1.9-8.1,5     c-0.2,0.5-0.7,0.8-1.2,0.8c-0.6,0-1-0.3-1.3-0.7c-1.4-2.5-3.9-4.1-6.7-4.1s-5.3,1.5-6.7,4.1C43,61.7,42.5,62,42,61.9     c-0.5,0-1-0.3-1.2-0.8c-1.4-3.1-4.7-5.2-8.1-5c-1.8,0.1-3.4,0.8-4.6,2c-0.3,0.3-0.7,0.5-1.2,0.4c-0.4-0.1-0.8-0.3-1-0.7     c-1.5-2.5-4.5-4.2-7.6-4.6C23.1,61.6,25.5,68.3,27.1,78.2z" fill="url('#linearGradientSkasyuovb1y')" stroke="none" style=""></path>
        </g>
      </svg>
    </g>
    <g transform="matrix(0.5,0,0,0.5,167.0034,232.75)">
      <svg width="385.986328125" height="185" style="overflow: visible;">
        <defs>
          <linearGradient x1="0" y1="0.5" x2="1" y2="0.5" id="linearGradientSkasyuovb2a">
            <stop offset="0%" stop-color="#b677d4"></stop>
            <stop offset="100%" stop-color="#b677d4"></stop>
          </linearGradient>
        </defs>
        <g transform="matrix(1,0,0,1,0,93.75)">
          <path d="M 23.97 0.78L 23.97 0.78Q 22.51 0.78  20.56 0.46Q 18.6 0.15  16.53-0.88Q 14.45-1.9  12.45-3.78Q 10.45-5.66  8.86-8.76Q 7.28-11.87  6.3-16.38Q 5.32-20.9  5.32-27.15L 5.32-27.15L 5.32-56.69Q 5.32-62.99  6.35-67.46Q 7.37-71.92  9.08-74.98Q 10.79-78.03  13.01-79.83Q 15.23-81.64  17.63-82.59Q 20.02-83.54  22.36-83.84Q 24.71-84.13  26.71-84.13L 26.71-84.13Q 31.79-84.13  35.28-82.74Q 38.77-81.35  40.94-78.93Q 43.12-76.51  44.07-73.29Q 45.02-70.07  45.02-66.46L 45.02-66.46Q 45.02-63.77  44.7-61.5Q 44.38-59.23  43.85-56.49L 43.85-56.49L 33.74-56.49L 33.74-60.45Q 33.74-74.17  26.37-74.17L 26.37-74.17Q 24.37-74.17  22.9-73.49Q 21.44-72.8  20.46-71.17Q 19.48-69.53  19.02-66.85Q 18.55-64.16  18.55-60.16L 18.55-60.16L 18.55-22.36Q 18.55-18.46  19.02-15.87Q 19.48-13.28  20.43-11.72Q 21.39-10.16  22.83-9.5Q 24.27-8.84  26.27-8.84L 26.27-8.84Q 28.37-8.84  29.88-9.94Q 31.4-11.04  32.37-12.94Q 33.35-14.84  33.81-17.43Q 34.28-20.02  34.28-23.05L 34.28-23.05L 34.28-33.94L 27.78-33.94L 27.78-42.24L 46.58-42.24L 46.58 0L 38.18 0L 36.82-7.91Q 34.42-3.27  31.32-1.25Q 28.22 0.78  23.97 0.78ZM 73.683046875 0.73L 73.683046875 0.73Q 69.33304687500001 0.73  65.993046875-0.88Q 62.643046874999996-2.49  60.353046875000004-5.91Q 58.053046875-9.33  56.883046875-14.67Q 55.713046875-20.02  55.713046875-27.54L 55.713046875-27.54L 55.713046875-40.23Q 55.713046875-46.63  56.663046875-51.2Q 57.613046875-55.76  59.153046875-58.86Q 60.693046875-61.96  62.723046875-63.77Q 64.743046875-65.58  66.893046875-66.53Q 69.043046875-67.48  71.16304687499999-67.75Q 73.293046875-68.02  75.093046875-68.02L 75.093046875-68.02Q 78.41304687499999-68.02  81.493046875-67.02Q 84.573046875-66.02  86.91304687499999-63.6Q 89.253046875-61.18  90.653046875-57.13Q 92.043046875-53.08  92.043046875-47.02L 92.043046875-47.02Q 92.043046875-44.97  91.923046875-42.87Q 91.793046875-40.77  91.60304687499999-38.75Q 91.403046875-36.72  91.093046875-34.81Q 90.773046875-32.91  90.433046875-31.3L 90.433046875-31.3L 68.113046875-31.3L 68.113046875-24.46Q 68.113046875-20.07  68.453046875-17.07Q 68.803046875-14.06  69.603046875-12.23Q 70.41304687499999-10.4  71.803046875-9.59Q 73.193046875-8.79  75.293046875-8.79L 75.293046875-8.79Q 76.41304687499999-8.79  77.493046875-9.25Q 78.563046875-9.72  79.373046875-10.79Q 80.173046875-11.87  80.66304687499999-13.65Q 81.153046875-15.43  81.153046875-18.07L 81.153046875-18.07L 81.153046875-20.17L 91.453046875-20.17L 91.453046875-17.58Q 91.453046875-8.01  86.89304687500001-3.64Q 82.323046875 0.73  73.683046875 0.73ZM 68.113046875-39.6L 80.513046875-39.6Q 80.563046875-40.14  80.613046875-41.04Q 80.66304687499999-41.94  80.693046875-42.92Q 80.713046875-43.9  80.713046875-44.85Q 80.713046875-45.8  80.713046875-46.48L 80.713046875-46.48Q 80.713046875-53.13  79.153046875-56.05Q 77.58304687500001-58.98  74.513046875-58.98L 74.513046875-58.98Q 72.903046875-58.98  71.683046875-58.23Q 70.463046875-57.47  69.673046875-55.69Q 68.893046875-53.91  68.503046875-50.98Q 68.113046875-48.05  68.113046875-43.7L 68.113046875-43.7L 68.113046875-39.6ZM 103.90257812499999-16.75L 103.90257812499999-58.45L 98.68257812499999-58.45L 98.68257812499999-67.24L 104.98257812499999-67.24L 107.47257812499998-84.67L 116.26257812499999-84.67L 116.26257812499999-67.24L 127.00257812499999-67.24L 127.00257812499999-58.45L 116.26257812499999-58.45L 116.26257812499999-15.67Q 116.26257812499999-13.48  116.67257812499999-12.13Q 117.09257812499999-10.79  117.82257812499998-10.03Q 118.55257812499998-9.28  119.53257812499999-9.03Q 120.51257812499999-8.79  121.58257812499998-8.79L 121.58257812499998-8.79Q 123.39257812499999-8.79  124.78257812499999-9.23Q 126.17257812499999-9.67  127.44257812499998-10.45L 127.44257812499998-10.45L 127.44257812499998-3.61Q 126.36257812499998-2.29  125.12257812499999-1.46Q 123.87257812499999-0.63  122.56257812499999-0.12Q 121.242578125 0.39  119.87257812499999 0.59Q 118.50257812499999 0.78  117.18257812499999 0.78L 117.18257812499999 0.78Q 114.60257812499998 0.78  112.20257812499999 0.1Q 109.81257812499999-0.59  107.962578125-2.51Q 106.10257812499998-4.44  105.00257812499999-7.86Q 103.90257812499999-11.28  103.90257812499999-16.75L 103.90257812499999-16.75ZM 157.61828125 0L 157.61828125-83.4L 170.40828125000002-83.4Q 173.23828125-83.4  176.26828125-83.2Q 179.29828125-83.01  182.17828125-82.37Q 185.05828125-81.74  187.64828125-80.49Q 190.23828125-79.25  192.15828125000002-77.15Q 194.08828125-75.05  195.23828125-71.95Q 196.38828125-68.85  196.38828125-64.5L 196.38828125-64.5L 196.38828125-60.45Q 196.38828125-57.13  195.43828125-54.35Q 194.47828125-51.56  192.91828125-49.44Q 191.35828125-47.31  189.35828125-45.92Q 187.35828125-44.53  185.25828125-44.04L 185.25828125-44.04L 185.25828125-43.65Q 191.45828125-42.53  194.60828125-37.77Q 197.75828125-33.01  197.75828125-25.59L 197.75828125-25.59L 197.75828125-21.34Q 197.75828125-16.8  196.74828125-13.45Q 195.74828125-10.11  193.94828125-7.74Q 192.13828125-5.37  189.64828125-3.86Q 187.15828125000002-2.34  184.17828125-1.49Q 181.19828125-0.63  177.82828125-0.32Q 174.45828125 0  170.89828125 0L 170.89828125 0L 157.61828125 0ZM 170.01828125-47.71L 172.45828125-47.71Q 174.99828125-47.71  177.09828125-48.32Q 179.19828125-48.93  180.68828125-50.22Q 182.17828125-51.51  182.98828125-53.59Q 183.78828125-55.66  183.78828125-58.59L 183.78828125-58.59L 183.78828125-62.01Q 183.78828125-64.94  183.19828125-67.19Q 182.61828125-69.43  181.27828125-71Q 179.92828125-72.56  177.75828125-73.36Q 175.58828125-74.17  172.45828125-74.17L 172.45828125-74.17L 170.01828125-74.17L 170.01828125-47.71ZM 170.01828125-8.79L 173.62828125-8.79Q 176.16828125-8.79  178.24828125-9.45Q 180.31828124999998-10.11  181.80828125-11.5Q 183.29828125-12.89  184.10828125-15.04Q 184.90828125000002-17.19  184.90828125000002-20.12L 184.90828125000002-20.12L 184.90828125000002-26.61Q 184.90828125000002-29.54  184.32828125-31.81Q 183.73828125-34.08  182.39828125-35.62Q 181.05828125-37.16  178.90828125000002-37.96Q 176.75828125-38.77  173.62828125-38.77L 173.62828125-38.77L 170.01828125-38.77L 170.01828125-8.79ZM 217.24132812500005 0.73L 217.24132812500005 0.73Q 214.11132812500006 0.73  211.69132812500007-0.51Q 209.28132812500004-1.76  207.62132812500005-3.91Q 205.96132812500005-6.05  205.10132812500007-9.01Q 204.25132812500004-11.96  204.25132812500004-15.43L 204.25132812500004-15.43Q 204.25132812500004-19.58  205.27132812500005-22.8Q 206.30132812500005-26.03  208.28132812500004-28.61Q 210.25132812500004-31.2  213.18132812500005-33.33Q 216.11132812500006-35.45  219.97132812500007-37.35L 219.97132812500007-37.35Q 221.82132812500006-38.28  224.14132812500006-39.23Q 226.46132812500005-40.19  228.27132812500005-40.87L 228.27132812500005-40.87L 228.27132812500005-49.76Q 228.27132812500005-51.71  228.12132812500005-53.39Q 227.98132812500006-55.08  227.42132812500006-56.32Q 226.85132812500007-57.57  225.73132812500006-58.28Q 224.61132812500006-58.98  222.65132812500005-58.98L 222.65132812500005-58.98Q 221.34132812500005-58.98  220.09132812500005-58.5Q 218.85132812500007-58.01  217.89132812500006-56.84Q 216.94132812500007-55.66  216.38132812500007-53.71Q 215.82132812500006-51.76  215.82132812500006-48.88L 215.82132812500006-48.88L 215.82132812500006-45.95L 206.40132812500005-45.95Q 205.96132812500005-47.85  205.74132812500005-49.44Q 205.52132812500005-51.03  205.52132812500005-52.59L 205.52132812500005-52.59Q 205.52132812500005-56.35  206.81132812500005-59.23Q 208.10132812500007-62.11  210.42132812500006-64.06Q 212.74132812500005-66.02  215.97132812500007-67.02Q 219.19132812500004-68.02  223.05132812500005-68.02L 223.05132812500005-68.02Q 228.07132812500006-68.02  231.40132812500005-66.92Q 234.72132812500007-65.82  236.69132812500004-63.62Q 238.67132812500006-61.43  239.48132812500006-58.11Q 240.28132812500007-54.79  240.28132812500007-50.34L 240.28132812500007-50.34L 240.28132812500007 0L 231.10132812500007 0L 230.22132812500007-5.76Q 228.22132812500007-2.88  224.88132812500007-1.07Q 221.53132812500007 0.73  217.24132812500005 0.73ZM 222.70132812500006-8.79L 222.70132812500006-8.79Q 224.27132812500005-8.79  225.76132812500006-9.59Q 227.24132812500005-10.4  228.27132812500005-11.57L 228.27132812500005-11.57L 228.27132812500005-32.62Q 227.29132812500006-32.23  226.07132812500006-31.69Q 224.85132812500007-31.15  223.44132812500004-30.27L 223.44132812500004-30.27Q 222.12132812500005-29.44  220.85132812500007-28.27Q 219.58132812500006-27.1  218.58132812500006-25.49Q 217.58132812500006-23.88  216.97132812500007-21.85Q 216.36132812500006-19.82  216.36132812500006-17.33L 216.36132812500006-17.33Q 216.36132812500006-13.48  217.87132812500005-11.13Q 219.38132812500007-8.79  222.70132812500006-8.79ZM 253.26851562500005 0L 253.26851562500005-88.82L 265.62851562500003-88.82L 265.62851562500003-37.7L 266.0185156250001-37.7L 279.48851562500005-67.24L 291.35851562500005-67.24L 276.41851562500005-36.47L 292.7685156250001 0L 280.17851562500005 0L 266.0185156250001-33.35L 265.62851562500003-33.35L 265.62851562500003 0L 253.26851562500005 0ZM 315.28460937500006 0.73L 315.28460937500006 0.73Q 310.93460937500004 0.73  307.59460937500006-0.88Q 304.24460937500004-2.49  301.9546093750001-5.91Q 299.65460937500006-9.33  298.48460937500005-14.67Q 297.31460937500003-20.02  297.31460937500003-27.54L 297.31460937500003-27.54L 297.31460937500003-40.23Q 297.31460937500003-46.63  298.2646093750001-51.2Q 299.21460937500007-55.76  300.75460937500003-58.86Q 302.29460937500005-61.96  304.3246093750001-63.77Q 306.34460937500006-65.58  308.49460937500004-66.53Q 310.6446093750001-67.48  312.7646093750001-67.75Q 314.8946093750001-68.02  316.694609375-68.02L 316.694609375-68.02Q 320.0146093750001-68.02  323.09460937500006-67.02Q 326.17460937500005-66.02  328.5146093750001-63.6Q 330.85460937500005-61.18  332.2546093750001-57.13Q 333.6446093750001-53.08  333.6446093750001-47.02L 333.6446093750001-47.02Q 333.6446093750001-44.97  333.52460937500007-42.87Q 333.3946093750001-40.77  333.2046093750001-38.75Q 333.0046093750001-36.72  332.694609375-34.81Q 332.37460937500003-32.91  332.03460937500006-31.3L 332.03460937500006-31.3L 309.71460937500007-31.3L 309.71460937500007-24.46Q 309.71460937500007-20.07  310.05460937500004-17.07Q 310.40460937500006-14.06  311.2046093750001-12.23Q 312.0146093750001-10.4  313.40460937500006-9.59Q 314.79460937500005-8.79  316.8946093750001-8.79L 316.8946093750001-8.79Q 318.0146093750001-8.79  319.09460937500006-9.25Q 320.16460937500005-9.72  320.97460937500006-10.79Q 321.77460937500007-11.87  322.2646093750001-13.65Q 322.7546093750001-15.43  322.7546093750001-18.07L 322.7546093750001-18.07L 322.7546093750001-20.17L 333.05460937500004-20.17L 333.05460937500004-17.58Q 333.05460937500004-8.01  328.49460937500004-3.64Q 323.92460937500005 0.73  315.28460937500006 0.73ZM 309.71460937500007-39.6L 322.11460937500004-39.6Q 322.16460937500005-40.14  322.21460937500007-41.04Q 322.2646093750001-41.94  322.29460937500005-42.92Q 322.31460937500003-43.9  322.31460937500003-44.85Q 322.31460937500003-45.8  322.31460937500003-46.48L 322.31460937500003-46.48Q 322.31460937500003-53.13  320.7546093750001-56.05Q 319.18460937500004-58.98  316.11460937500004-58.98L 316.11460937500004-58.98Q 314.5046093750001-58.98  313.28460937500006-58.23Q 312.06460937500003-57.47  311.27460937500007-55.69Q 310.49460937500004-53.91  310.10460937500005-50.98Q 309.71460937500007-48.05  309.71460937500007-43.7L 309.71460937500007-43.7L 309.71460937500007-39.6ZM 356.98414062500007 0.78L 356.98414062500007 0.78Q 355.86414062500006 0.78  354.3441406250001 0.56Q 352.83414062500003 0.34  351.2241406250001-0.44Q 349.61414062500006-1.22  348.04414062500007-2.78Q 346.48414062500007-4.35  345.26414062500004-7.06Q 344.04414062500007-9.77  343.2841406250001-13.77Q 342.5341406250001-17.77  342.5341406250001-23.49L 342.5341406250001-23.49L 342.5341406250001-44.82Q 342.5341406250001-50.49  343.33414062500003-54.39Q 344.14414062500003-58.3  345.45414062500004-60.86Q 346.77414062500003-63.43  348.4141406250001-64.87Q 350.04414062500007-66.31  351.68414062500005-66.99Q 353.32414062500004-67.68  354.81414062500005-67.82Q 356.29414062500007-67.97  357.2741406250001-67.97L 357.2741406250001-67.97Q 359.08414062500003-67.97  360.69414062500005-67.48Q 362.30414062500006-66.99  363.62414062500005-66.19Q 364.94414062500005-65.38  365.964140625-64.38Q 366.99414062500006-63.38  367.67414062500006-62.35L 367.67414062500006-62.35L 367.7241406250001-62.4L 367.33414062500003-70.9L 367.33414062500003-88.82L 379.63414062500004-88.82L 379.63414062500004 0L 370.0241406250001 0L 368.94414062500005-6.25Q 368.11414062500006-4.93  367.04414062500007-3.66Q 365.964140625-2.39  364.50414062500005-1.39Q 363.0341406250001-0.39  361.18414062500005 0.2Q 359.32414062500004 0.78  356.98414062500007 0.78ZM 361.18414062500005-8.79L 361.18414062500005-8.79Q 362.4041406250001-8.79  363.35414062500007-9.2Q 364.30414062500006-9.62  365.06414062500005-10.28Q 365.82414062500004-10.94  366.38414062500004-11.82Q 366.94414062500005-12.7  367.33414062500003-13.62L 367.33414062500003-13.62L 367.33414062500003-54.05Q 366.4041406250001-56.1  364.86414062500006-57.54Q 363.33414062500003-58.98  361.13414062500004-58.98L 361.13414062500004-58.98Q 359.76414062500004-58.98  358.64414062500003-58.5Q 357.5241406250001-58.01  356.69414062500005-56.67Q 355.86414062500006-55.32  355.39414062500003-52.95Q 354.93414062500005-50.59  354.93414062500005-46.83L 354.93414062500005-46.83L 354.93414062500005-21.04Q 354.93414062500005-17.29  355.39414062500003-14.89Q 355.86414062500006-12.5  356.69414062500005-11.16Q 357.5241406250001-9.81  358.6641406250001-9.3Q 359.81414062500005-8.79  361.18414062500005-8.79Z" data-textpath="Get Baked" data-text-anchor="middle" data-font-size="100" data-letterspacing="0" data-side="left" data-offset="0.5" data-dx="0" data-dy="0" data-xmlspace="preserve" data-href="" data-font="Fjalla One" data-font-src="/Content/clientfonts/fjallaone.woff" data-font-scale="contain" transform="translate(0,0)" data-x="0" data-y="0" fill="url('#linearGradientSkasyuovb2a')"></path>
        </g>
      </svg>
    </g>
    <g transform="matrix(0.4326,0,0,0.4326,191.4217,289.4601)">
      <svg width="342.138671875" height="185" style="overflow: visible;">
        <defs>
          <linearGradient x1="0" y1="0.5" x2="1" y2="0.5" id="linearGradientSkasyuovb2d">
            <stop offset="0%" stop-color="#81f0a3"></stop>
            <stop offset="100%" stop-color="#81f0a3"></stop>
          </linearGradient>
        </defs>
        <g transform="matrix(1,0,0,1,0,93.75)">
          <path d="M 25.1 0.73L 25.1 0.73Q 23.14 0.73  20.87 0.42Q 18.6 0.1  16.33-0.93Q 14.06-1.95  11.99-3.83Q 9.91-5.71  8.33-8.79Q 6.74-11.87  5.79-16.38Q 4.83-20.9  4.83-27.15L 4.83-27.15L 4.83-56.69Q 4.83-62.99  5.81-67.46Q 6.79-71.92  8.4-74.98Q 10.01-78.03  12.11-79.83Q 14.21-81.64  16.46-82.59Q 18.7-83.54  20.92-83.84Q 23.14-84.13  25.05-84.13L 25.05-84.13Q 30.03-84.13  33.37-82.74Q 36.72-81.35  38.75-78.93Q 40.77-76.51  41.63-73.29Q 42.48-70.07  42.48-66.46L 42.48-66.46Q 42.48-63.77  42.21-61.5Q 41.94-59.23  41.41-56.49L 41.41-56.49L 31.15-56.49L 31.15-60.74Q 31.15-67.63  29.64-71.04Q 28.13-74.46  25.2-74.46L 25.2-74.46Q 23.44-74.46  22.12-73.78Q 20.8-73.1  19.92-71.46Q 19.04-69.82  18.58-67.14Q 18.12-64.45  18.12-60.45L 18.12-60.45L 18.12-22.36Q 18.12-18.46  18.48-15.87Q 18.85-13.28  19.68-11.72Q 20.51-10.16  21.85-9.5Q 23.19-8.84  25.1-8.84L 25.1-8.84Q 26.32-8.84  27.44-9.4Q 28.56-9.96  29.42-11.16Q 30.27-12.35  30.79-14.18Q 31.3-16.02  31.3-18.51L 31.3-18.51L 31.3-26.66L 42.87-26.66L 42.87-18.95Q 42.87-8.89  38.28-4.1Q 33.69 0.68  25.1 0.73ZM 68.99312499999999 0.73L 68.99312499999999 0.73Q 66.843125 0.73  64.623125 0.39Q 62.403125 0.05  60.323125-1.03Q 58.253125-2.1  56.423125-4.1Q 54.593125-6.1  53.223124999999996-9.38Q 51.853125-12.65  51.073125-17.43Q 50.293125-22.22  50.293125-28.86L 50.293125-28.86L 50.293125-39.4Q 50.293125-45.95  51.103125-50.61Q 51.903125-55.27  53.293125-58.45Q 54.683125000000004-61.62  56.543125-63.5Q 58.403125-65.38  60.473124999999996-66.38Q 62.553125-67.38  64.74312499999999-67.7Q 66.943125-68.02  69.043125-68.02L 69.043125-68.02Q 71.043125-68.02  73.193125-67.72Q 75.343125-67.43  77.393125-66.48Q 79.44312500000001-65.53  81.273125-63.65Q 83.103125-61.77  84.49312499999999-58.59Q 85.893125-55.42  86.69312500000001-50.71Q 87.503125-46  87.503125-39.4L 87.503125-39.4L 87.503125-28.86Q 87.503125-22.31  86.673125-17.58Q 85.843125-12.84  84.423125-9.57Q 83.003125-6.3  81.153125-4.27Q 79.293125-2.25  77.24312499999999-1.12Q 75.193125 0  73.073125 0.37Q 70.943125 0.73  68.99312499999999 0.73ZM 69.093125-8.79L 69.093125-8.79Q 70.753125-8.79  71.903125-9.64Q 73.043125-10.5  73.753125-12.45Q 74.463125-14.4  74.783125-17.6Q 75.093125-20.8  75.093125-25.54L 75.093125-25.54L 75.093125-42.09Q 75.093125-46.83  74.783125-50.05Q 74.463125-53.27  73.753125-55.25Q 73.043125-57.23  71.903125-58.11Q 70.753125-58.98  69.093125-58.98L 69.093125-58.98Q 67.333125-58.98  66.133125-58.11Q 64.943125-57.23  64.16312500000001-55.25Q 63.383125-53.27  63.033125-50.05Q 62.693124999999995-46.83  62.693124999999995-42.09L 62.693124999999995-42.09L 62.693124999999995-25.54Q 62.693124999999995-20.8  63.033125-17.6Q 63.383125-14.4  64.16312500000001-12.45Q 64.943125-10.5  66.133125-9.64Q 67.333125-8.79  69.093125-8.79ZM 98.62984375000002 0L 98.62984375000002-88.82L 110.98984375-88.82L 110.98984375 0L 98.62984375000002 0ZM 140.819296875 0.73L 140.819296875 0.73Q 138.669296875 0.73  136.44929687500002 0.39Q 134.229296875 0.05  132.149296875-1.03Q 130.079296875-2.1  128.249296875-4.1Q 126.419296875-6.1  125.049296875-9.38Q 123.679296875-12.65  122.899296875-17.43Q 122.119296875-22.22  122.119296875-28.86L 122.119296875-28.86L 122.119296875-39.4Q 122.119296875-45.95  122.929296875-50.61Q 123.729296875-55.27  125.119296875-58.45Q 126.509296875-61.62  128.369296875-63.5Q 130.229296875-65.38  132.299296875-66.38Q 134.379296875-67.38  136.569296875-67.7Q 138.769296875-68.02  140.869296875-68.02L 140.869296875-68.02Q 142.869296875-68.02  145.019296875-67.72Q 147.169296875-67.43  149.219296875-66.48Q 151.269296875-65.53  153.099296875-63.65Q 154.929296875-61.77  156.319296875-58.59Q 157.719296875-55.42  158.519296875-50.71Q 159.329296875-46  159.329296875-39.4L 159.329296875-39.4L 159.329296875-28.86Q 159.329296875-22.31  158.499296875-17.58Q 157.669296875-12.84  156.249296875-9.57Q 154.829296875-6.3  152.979296875-4.27Q 151.119296875-2.25  149.069296875-1.12Q 147.019296875 0  144.899296875 0.37Q 142.769296875 0.73  140.819296875 0.73ZM 140.919296875-8.79L 140.919296875-8.79Q 142.579296875-8.79  143.729296875-9.64Q 144.869296875-10.5  145.579296875-12.45Q 146.289296875-14.4  146.60929687499998-17.6Q 146.919296875-20.8  146.919296875-25.54L 146.919296875-25.54L 146.919296875-42.09Q 146.919296875-46.83  146.60929687499998-50.05Q 146.289296875-53.27  145.579296875-55.25Q 144.869296875-57.23  143.729296875-58.11Q 142.579296875-58.98  140.919296875-58.98L 140.919296875-58.98Q 139.159296875-58.98  137.959296875-58.11Q 136.769296875-57.23  135.989296875-55.25Q 135.209296875-53.27  134.85929687499998-50.05Q 134.519296875-46.83  134.519296875-42.09L 134.519296875-42.09L 134.519296875-25.54Q 134.519296875-20.8  134.85929687499998-17.6Q 135.209296875-14.4  135.989296875-12.45Q 136.769296875-10.5  137.959296875-9.64Q 139.159296875-8.79  140.919296875-8.79ZM 170.26601562500002 0L 170.26601562500002-67.24L 179.29601562500002-67.24L 180.37601562500004-60.4Q 182.42601562500002-64.21  185.08601562500002-66.11Q 187.74601562500004-68.02  190.526015625-68.02L 190.526015625-68.02Q 195.84601562500004-68.02  198.38601562500003-64.75Q 200.92601562500002-61.47  200.92601562500002-54.93L 200.92601562500002-54.93Q 200.92601562500002-54.1  200.80601562500004-52.95Q 200.68601562500004-51.81  200.466015625-50.56Q 200.24601562500004-49.32  199.92601562500002-48.07Q 199.60601562500003-46.83  199.26601562500002-45.8L 199.26601562500002-45.8L 190.67601562500002-45.8L 190.67601562500002-52.05Q 190.67601562500002-54.1  190.40601562500004-55.42Q 190.13601562500003-56.74  189.69601562500003-57.54Q 189.25601562500003-58.35  188.67601562500002-58.67Q 188.08601562500002-58.98  187.40601562500004-58.98L 187.40601562500004-58.98Q 185.93601562500004-58.98  184.69601562500003-58.03Q 183.44601562500003-57.08  182.61601562500002-55.37L 182.61601562500002-55.37L 182.61601562500002 0L 170.26601562500002 0ZM 218.02257812499997 0.73L 218.02257812499997 0.73Q 214.89257812499997 0.73  212.47257812499998-0.51Q 210.06257812499996-1.76  208.40257812499996-3.91Q 206.74257812499997-6.05  205.88257812499998-9.01Q 205.03257812499996-11.96  205.03257812499996-15.43L 205.03257812499996-15.43Q 205.03257812499996-19.58  206.05257812499997-22.8Q 207.08257812499997-26.03  209.06257812499996-28.61Q 211.032578125-31.2  213.96257812499996-33.33Q 216.89257812499997-35.45  220.75257812499996-37.35L 220.75257812499996-37.35Q 222.60257812499998-38.28  224.92257812499997-39.23Q 227.24257812499997-40.19  229.05257812499997-40.87L 229.05257812499997-40.87L 229.05257812499997-49.76Q 229.05257812499997-51.71  228.90257812499996-53.39Q 228.76257812499998-55.08  228.20257812499997-56.32Q 227.63257812499998-57.57  226.51257812499998-58.28Q 225.39257812499997-58.98  223.43257812499996-58.98L 223.43257812499996-58.98Q 222.12257812499996-58.98  220.87257812499996-58.5Q 219.63257812499998-58.01  218.67257812499997-56.84Q 217.72257812499998-55.66  217.16257812499998-53.71Q 216.60257812499998-51.76  216.60257812499998-48.88L 216.60257812499998-48.88L 216.60257812499998-45.95L 207.18257812499996-45.95Q 206.74257812499997-47.85  206.52257812499997-49.44Q 206.30257812499997-51.03  206.30257812499997-52.59L 206.30257812499997-52.59Q 206.30257812499997-56.35  207.59257812499996-59.23Q 208.88257812499998-62.11  211.20257812499997-64.06Q 213.52257812499997-66.02  216.75257812499996-67.02Q 219.97257812499998-68.02  223.83257812499997-68.02L 223.83257812499997-68.02Q 228.85257812499998-68.02  232.18257812499996-66.92Q 235.50257812499996-65.82  237.47257812499998-63.62Q 239.45257812499997-61.43  240.26257812499998-58.11Q 241.06257812499996-54.79  241.06257812499996-50.34L 241.06257812499996-50.34L 241.06257812499996 0L 231.88257812499998 0L 231.00257812499996-5.76Q 229.00257812499996-2.88  225.66257812499998-1.07Q 222.31257812499996 0.73  218.02257812499997 0.73ZM 223.48257812499997-8.79L 223.48257812499997-8.79Q 225.05257812499997-8.79  226.54257812499998-9.59Q 228.02257812499997-10.4  229.05257812499997-11.57L 229.05257812499997-11.57L 229.05257812499997-32.62Q 228.07257812499998-32.23  226.85257812499998-31.69Q 225.63257812499998-31.15  224.22257812499998-30.27L 224.22257812499998-30.27Q 222.90257812499996-29.44  221.63257812499998-28.27Q 220.36257812499997-27.1  219.36257812499997-25.49Q 218.36257812499997-23.88  217.75257812499996-21.85Q 217.14257812499997-19.82  217.14257812499997-17.33L 217.14257812499997-17.33Q 217.14257812499997-13.48  218.65257812499996-11.13Q 220.16257812499998-8.79  223.48257812499997-8.79ZM 266.749765625 0.78L 266.749765625 0.78Q 265.629765625 0.78  264.109765625 0.56Q 262.599765625 0.34  260.989765625-0.44Q 259.379765625-1.22  257.809765625-2.78Q 256.249765625-4.35  255.029765625-7.06Q 253.809765625-9.77  253.049765625-13.77Q 252.299765625-17.77  252.299765625-23.49L 252.299765625-23.49L 252.299765625-44.82Q 252.299765625-50.49  253.099765625-54.39Q 253.909765625-58.3  255.219765625-60.86Q 256.539765625-63.43  258.179765625-64.87Q 259.809765625-66.31  261.449765625-66.99Q 263.089765625-67.68  264.579765625-67.82Q 266.059765625-67.97  267.039765625-67.97L 267.039765625-67.97Q 268.849765625-67.97  270.459765625-67.48Q 272.069765625-66.99  273.389765625-66.19Q 274.709765625-65.38  275.729765625-64.38Q 276.759765625-63.38  277.439765625-62.35L 277.439765625-62.35L 277.489765625-62.4L 277.099765625-70.9L 277.099765625-88.82L 289.399765625-88.82L 289.399765625 0L 279.789765625 0L 278.709765625-6.25Q 277.879765625-4.93  276.809765625-3.66Q 275.729765625-2.39  274.269765625-1.39Q 272.799765625-0.39  270.949765625 0.2Q 269.089765625 0.78  266.749765625 0.78ZM 270.949765625-8.79L 270.949765625-8.79Q 272.169765625-8.79  273.119765625-9.2Q 274.069765625-9.62  274.829765625-10.28Q 275.589765625-10.94  276.149765625-11.82Q 276.709765625-12.7  277.099765625-13.62L 277.099765625-13.62L 277.099765625-54.05Q 276.169765625-56.1  274.629765625-57.54Q 273.099765625-58.98  270.899765625-58.98L 270.899765625-58.98Q 269.529765625-58.98  268.409765625-58.5Q 267.289765625-58.01  266.459765625-56.67Q 265.629765625-55.32  265.159765625-52.95Q 264.699765625-50.59  264.699765625-46.83L 264.699765625-46.83L 264.699765625-21.04Q 264.699765625-17.29  265.159765625-14.89Q 265.629765625-12.5  266.459765625-11.16Q 267.289765625-9.81  268.429765625-9.3Q 269.579765625-8.79  270.949765625-8.79ZM 319.041953125 0.73L 319.041953125 0.73Q 316.891953125 0.73  314.671953125 0.39Q 312.451953125 0.05  310.371953125-1.03Q 308.301953125-2.1  306.471953125-4.1Q 304.641953125-6.1  303.271953125-9.38Q 301.901953125-12.65  301.121953125-17.43Q 300.341953125-22.22  300.341953125-28.86L 300.341953125-28.86L 300.341953125-39.4Q 300.341953125-45.95  301.151953125-50.61Q 301.951953125-55.27  303.341953125-58.45Q 304.731953125-61.62  306.591953125-63.5Q 308.451953125-65.38  310.521953125-66.38Q 312.601953125-67.38  314.791953125-67.7Q 316.991953125-68.02  319.091953125-68.02L 319.091953125-68.02Q 321.091953125-68.02  323.241953125-67.72Q 325.391953125-67.43  327.441953125-66.48Q 329.491953125-65.53  331.321953125-63.65Q 333.151953125-61.77  334.541953125-58.59Q 335.941953125-55.42  336.741953125-50.71Q 337.551953125-46  337.551953125-39.4L 337.551953125-39.4L 337.551953125-28.86Q 337.551953125-22.31  336.721953125-17.58Q 335.891953125-12.84  334.471953125-9.57Q 333.051953125-6.3  331.201953125-4.27Q 329.34195312500003-2.25  327.291953125-1.12Q 325.241953125 0  323.121953125 0.37Q 320.991953125 0.73  319.041953125 0.73ZM 319.141953125-8.79L 319.141953125-8.79Q 320.801953125-8.79  321.951953125-9.64Q 323.091953125-10.5  323.801953125-12.45Q 324.511953125-14.4  324.831953125-17.6Q 325.141953125-20.8  325.141953125-25.54L 325.141953125-25.54L 325.141953125-42.09Q 325.141953125-46.83  324.831953125-50.05Q 324.511953125-53.27  323.801953125-55.25Q 323.091953125-57.23  321.951953125-58.11Q 320.801953125-58.98  319.141953125-58.98L 319.141953125-58.98Q 317.381953125-58.98  316.181953125-58.11Q 314.991953125-57.23  314.211953125-55.25Q 313.431953125-53.27  313.081953125-50.05Q 312.741953125-46.83  312.741953125-42.09L 312.741953125-42.09L 312.741953125-25.54Q 312.741953125-20.8  313.081953125-17.6Q 313.431953125-14.4  314.211953125-12.45Q 314.991953125-10.5  316.181953125-9.64Q 317.381953125-8.79  319.141953125-8.79Z" data-textpath="Colorado" data-text-anchor="middle" data-font-size="100" data-letterspacing="0" data-side="left" data-offset="0.5" data-dx="0" data-dy="0" data-xmlspace="preserve" data-href="" data-font="Fjalla One" data-font-src="/Content/clientfonts/fjallaone.woff" data-font-scale="contain" transform="translate(0,0)" data-x="0" data-y="0" fill="url('#linearGradientSkasyuovb2d')"></path>
        </g>
      </svg>
    </g>
  </g>
</svg>